# xmcd CD database file
#
# Track frame offsets:
#	150
#	25930
#	41806
#	53453
#	78596
#	133747
#	149361
#	186163
#	202141
#	257663
#	265303
#	287893
#
# Disc length: 4212 seconds
#
# Revision: 1
# Processed by: cddbd v1.5.2PL0 Copyright (c) Steve Scherf et al.
# Submitted via: CDex 1.51
#
DISCID=b910720c
DTITLE=Thee Banshees - 2
DYEAR=2001
DGENRE=Blues
TTITLE0=Wang dang doodle
TTITLE1=Looing for somebody
TTITLE2=Hound dog
TTITLE3=Hep me
TTITLE4=Evil (incl. Isolation Part 3)
TTITLE5=I don't understand
TTITLE6=My home is a prison
TTITLE7=Electric Boogie
TTITLE8=I can't keep from crying
TTITLE9=Scared
TTITLE10=Shakin' all over
TTITLE11=Jonah and the whale
EXTD=YEAR: 2001
EXTT0=
EXTT1=
EXTT2=
EXTT3=
EXTT4=
EXTT5=
EXTT6=
EXTT7=
EXTT8=
EXTT9=
EXTT10=
EXTT11=
PLAYORDER=
